<?xml version="1.0" encoding="UTF-8"?>
<svg width="541px" height="168px" viewBox="0 0 541 168" xmlns="http://www.w3.org/2000/svg" xmlns:xlink="http://www.w3.org/1999/xlink" version="1.1">
 <!-- Generated by Pixelmator Pro 2.1.5 -->
 <path id="Bible-copy" d="M535.12 68.36 C535.12 66.84 533.88 66.08 531.4 66.08 L502.12 66.08 502.12 78.08 520.6 78.08 C521.96 78.08 522.96 77.98 523.6 77.78 524.24 77.58 524.56 77.04 524.56 76.16 L526.72 76.16 526.72 88.88 524.32 88.88 C524.56 88 524.24 87.46 523.36 87.26 522.48 87.06 521.24 86.96 519.64 86.96 L502.12 86.96 502.12 101.12 532.84 101.12 C533.8 101.12 534.6 100.9 535.24 100.46 535.88 100.02 536.2 99.44 536.2 98.72 L538.36 98.72 538.36 111.32 536.2 111.32 C536.2 110.6 535.88 110.2 535.24 110.12 534.6 110.04 533.8 110 532.84 110 L488.8 110 488.8 107.84 C489.2 107.84 489.6 107.7 490 107.42 490.4 107.14 490.6 106.68 490.6 106.04 L490.6 61.16 C490.6 60.52 490.4 60.06 490 59.78 489.6 59.5 489.2 59.36 488.8 59.36 L488.8 57.2 531.4 57.2 C533.88 57.2 535.12 56.48 535.12 55.04 L537.28 55.04 537.28 68.36 Z M438.76 57.2 L438.76 59.36 C436.92 59.36 436 59.96 436 61.16 L436 101.12 468.4 101.12 C469.36 101.12 470.16 100.9 470.8 100.46 471.44 100.02 471.76 99.4 471.76 98.6 L473.92 98.6 473.92 111.2 471.76 111.2 C471.76 110.56 471.44 110.2 470.8 110.12 470.16 110.04 469.36 110 468.4 110 L421.36 110 421.36 107.84 C423.44 107.84 424.48 107.24 424.48 106.04 L424.48 61.16 C424.48 59.96 423.44 59.36 421.36 59.36 L421.36 57.2 Z M382.96 78.08 C384.88 78.08 386.68 77.68 388.36 76.88 390.04 76.08 390.88 74.44 390.88 71.96 390.88 70.68 390.64 69.66 390.16 68.9 389.68 68.14 389.08 67.54 388.36 67.1 387.64 66.66 386.8 66.38 385.84 66.26 384.88 66.14 383.92 66.08 382.96 66.08 L361.6 66.08 361.6 78.08 Z M382.72 101.12 C386.4 101.12 388.92 100.52 390.28 99.32 391.64 98.12 392.32 96.44 392.32 94.28 392.32 91.8 391.44 89.96 389.68 88.76 387.92 87.56 384.96 86.96 380.8 86.96 L361.6 86.96 361.6 101.12 Z M350.08 61.16 C350.08 60.52 349.78 60.06 349.18 59.78 348.58 59.5 347.96 59.36 347.32 59.36 L347.32 57.2 384.64 57.2 C387.68 57.2 390.3 57.56 392.5 58.28 394.7 59 396.54 59.98 398.02 61.22 399.5 62.46 400.6 63.88 401.32 65.48 402.04 67.08 402.4 68.76 402.4 70.52 402.4 71.96 402.16 73.3 401.68 74.54 401.2 75.78 400.58 76.9 399.82 77.9 399.06 78.9 398.22 79.8 397.3 80.6 396.38 81.4 395.44 82.04 394.48 82.52 L394.48 82.64 C395.6 83.12 396.72 83.76 397.84 84.56 398.96 85.36 399.96 86.32 400.84 87.44 401.72 88.56 402.44 89.84 403 91.28 403.56 92.72 403.84 94.28 403.84 95.96 403.84 97.88 403.48 99.68 402.76 101.36 402.04 103.04 400.9 104.52 399.34 105.8 397.78 107.08 395.74 108.1 393.22 108.86 390.7 109.62 387.68 110 384.16 110 L347.32 110 347.32 107.84 C347.96 107.84 348.58 107.7 349.18 107.42 349.78 107.14 350.08 106.68 350.08 106.04 Z M309.76 107.84 C311.04 107.84 311.92 107.7 312.4 107.42 312.88 107.14 313.12 106.68 313.12 106.04 L313.12 61.16 C313.12 60.52 312.88 60.06 312.4 59.78 311.92 59.5 311.04 59.36 309.76 59.36 L309.76 57.2 328 57.2 328 59.36 C325.76 59.36 324.64 59.96 324.64 61.16 L324.64 106.04 C324.64 107.24 325.76 107.84 328 107.84 L328 110 309.76 110 Z M262.24 71.6 C265.84 71.6 268.82 71.14 271.18 70.22 273.54 69.3 274.72 67.36 274.72 64.4 274.72 61.44 273.54 59.5 271.18 58.58 268.82 57.66 265.84 57.2 262.24 57.2 L239.32 57.2 239.32 71.6 Z M262.24 98.96 C267.28 98.96 270.9 98.18 273.1 96.62 275.3 95.06 276.4 93 276.4 90.44 276.4 87.88 275.3 85.82 273.1 84.26 270.9 82.7 267.28 81.92 262.24 81.92 L239.32 81.92 239.32 98.96 Z M259.84 46.88 C263.52 46.88 267.08 47.18 270.52 47.78 273.96 48.38 277 49.34 279.64 50.66 282.28 51.98 284.4 53.7 286 55.82 287.6 57.94 288.4 60.56 288.4 63.68 288.4 67.44 287.24 70.34 284.92 72.38 282.6 74.42 279.84 76 276.64 77.12 L276.64 77.36 C280.4 78.48 283.58 80.26 286.18 82.7 288.78 85.14 290.08 88.64 290.08 93.2 290.08 95.6 289.56 97.82 288.52 99.86 287.48 101.9 285.94 103.68 283.9 105.2 281.86 106.72 279.36 107.9 276.4 108.74 273.44 109.58 270.08 110 266.32 110 L222.28 110 222.28 107.84 C224.52 107.84 225.64 107.12 225.64 105.68 L225.64 51.2 C225.64 49.76 224.52 49.04 222.28 49.04 L222.28 46.88 Z" fill="#fff" fill-opacity="1" stroke="none"/>
 <path id="x-copy" d="M114.465 168 L113.41 166.008 113.41 137.648 112.473 137.648 C110.754 137.648 107.473 138.273 102.629 139.523 L101.691 137.648 101.691 20.93 C101.691 9.523 117.394 2.648 148.801 0.305 157.238 1.086 161.457 5.344 161.457 13.078 L161.457 105.188 C159.738 121.594 153.879 129.797 143.879 129.797 139.973 130.813 138.02 131.789 138.02 132.727 L138.02 166.008 C138.02 167.336 137.355 168 136.027 168 132.121 163 128.527 159.719 125.246 158.156 L114.465 168 Z M101.691 153.234 C47.394 149.094 20.246 145.188 20.246 141.516 7.199 132.766 0.676 121.32 0.676 107.18 L0.676 30.656 C0.676 29.641 1.965 28.352 4.543 26.789 L8.527 26.789 C9.543 26.789 10.832 28.078 12.395 30.656 L12.395 93.469 C12.395 115.734 18.957 128.82 32.082 132.727 L98.762 146.438 C102.746 145.109 105.363 144.445 106.613 144.445 L107.551 146.438 107.551 150.305 C106.926 152.258 104.973 153.234 101.691 153.234 Z M143.879 148.43 L142.824 146.438 142.824 138.586 C142.824 137.414 151.652 135.109 169.309 131.672 179.777 126.125 185.012 112.414 185.012 90.539 L185.012 30.656 C185.012 29.641 186.34 28.352 188.996 26.789 L192.863 26.789 C193.879 26.789 195.207 28.078 196.848 30.656 L196.848 105.188 C196.848 134.016 179.192 148.43 143.879 148.43 Z M94.777 139.523 C57.512 132.57 38.879 126.047 38.879 119.953 36.926 114.094 35.949 109.172 35.949 105.188 L35.949 13.078 C35.949 4.563 40.52 0.305 49.66 0.305 80.441 2.727 95.832 9.602 95.832 20.93 L95.832 137.648 94.777 139.523 Z M37.941 128.742 C24.894 123.039 18.371 113.586 18.371 100.383 L18.371 13.078 C18.371 12.063 19.66 10.734 22.238 9.094 L24.23 9.094 C28.762 9.094 31.027 12.062 31.027 18 L31.027 111.164 C31.027 116.555 33.996 122.414 39.934 128.742 L37.941 128.742 Z M157.59 128.742 C163.449 122.492 166.379 116.633 166.379 111.164 L166.379 18 C166.379 12.062 168.684 9.094 173.293 9.094 L175.285 9.094 C176.301 9.094 177.59 10.422 179.152 13.078 L179.152 100.383 C179.152 113.977 172.277 123.43 158.527 128.742 L157.59 128.742 Z M117.891 111.459 C136.276 111.459 139.76 95.916 139.225 79.078 154.172 71.927 158.244 51.959 157.684 44.361 157.531 42.292 155.316 42.028 155.316 44.539 155.316 59.589 147.647 70.893 139.094 76.125 138.211 60.66 134.509 44.809 136.26 39.41 137.207 36.49 131.879 36.016 129.945 41.225 129.392 42.716 129.104 45.088 128.967 48.061 127.131 61.237 123.656 72.396 120.977 72.396 115.926 72.396 118.483 46.306 119.479 42.488 120.899 37.043 111.981 35.149 110.324 41.777 109.176 46.371 104.011 78 118.373 78 123.567 78 126.89 71.985 129.004 64.986 129.078 69.676 129.124 74.591 128.986 79.336 128.939 79.336 128.889 79.342 128.842 79.342 103.237 79.342 100.985 111.459 117.891 111.459 Z M117.893 106.803 C107.957 106.803 107.048 83.028 128.902 81.645 128.312 95.21 125.946 106.803 117.893 106.803 Z M84.959 92.57 C85.898 92.58 86.302 92.045 85.473 91.369 77.66 84.999 94.08 44.086 82.996 42.988 78.624 42.555 75.039 47.896 72.662 54.457 72.79 48.29 71.926 43.403 68.254 42.988 63.448 42.446 59.591 48.97 57.246 56.432 56.924 49.849 55.03 44.732 48.896 44.732 37.081 44.732 37.731 63.137 44.611 66.883 45.571 67.406 46.228 66.394 45.668 65.91 40.266 61.24 40.697 46.734 48.381 46.734 55.935 46.734 44.91 73.201 53.576 84.107 55.012 85.915 57.561 84.63 56.934 83.301 55.929 81.172 56.059 77.16 56.42 72.5 56.42 72.5 56.42 72.498 56.42 72.498 57.298 61.454 62.444 45.441 66.447 46.152 69.353 46.669 64.638 63.09 66.285 74.916 66.708 77.956 71.053 78.715 71.031 76.434 71.017 74.952 71.115 73.226 71.268 71.363 72.388 60.392 77.321 45.465 81.189 46.152 84.095 46.669 72.065 77.663 80.727 89.852 82.144 91.847 83.895 92.559 84.959 92.57 Z" fill="#fff" fill-opacity="1" stroke="none"/>
</svg>
