<?xml version="1.0" standalone="no"?>
<!DOCTYPE svg PUBLIC "-//W3C//DTD SVG 20010904//EN"
 "http://www.w3.org/TR/2001/REC-SVG-20010904/DTD/svg10.dtd">
<svg version="1.0" xmlns="http://www.w3.org/2000/svg"
 width="401.000000pt" height="401.000000pt" viewBox="0 0 401.000000 401.000000"
 preserveAspectRatio="xMidYMid meet">
<metadata>
Created by potrace 1.14, written by Peter Selinger 2001-2017
</metadata>
<g transform="translate(0.000000,401.000000) scale(0.100000,-0.100000)"
fill="#000000" stroke="none">
<path d="M1912 3986 c-79 -26 -139 -81 -179 -166 -26 -53 -27 -62 -29 -260 -1
-113 -3 -215 -3 -227 -1 -21 -3 -21 -248 -25 -213 -3 -254 -6 -288 -22 -71
-32 -122 -82 -156 -153 -29 -60 -31 -72 -27 -142 7 -120 66 -208 173 -261 48
-24 59 -25 295 -28 135 -2 247 -6 249 -8 3 -3 5 -276 5 -607 l1 -602 33 -65
c111 -221 417 -226 537 -9 l30 54 3 618 3 617 228 0 c179 0 239 3 282 16 86
25 150 80 192 164 32 65 31 186 -2 253 -30 62 -86 117 -148 148 -46 23 -58 24
-300 27 l-253 4 0 218 c0 195 -2 225 -20 273 -43 116 -142 188 -264 194 -43 2
-88 -3 -114 -11z"/>
<path d="M1045 2048 c-45 -16 -91 -50 -123 -91 -29 -36 -36 -57 -172 -527 -90
-312 -121 -412 -187 -610 -58 -173 -66 -205 -69 -285 -6 -158 38 -268 150
-381 80 -79 162 -125 261 -144 43 -8 395 -10 1250 -8 1333 3 1220 -3 1300 76
51 51 67 86 73 159 6 75 -13 131 -65 200 -48 63 -47 105 2 170 44 58 69 140
62 202 -7 51 -309 1056 -334 1109 -20 43 -73 95 -120 118 -33 17 -67 19 -270
22 -186 2 -233 0 -234 -10 0 -7 -2 -139 -3 -293 -3 -309 -8 -341 -64 -454 -68
-140 -216 -256 -370 -291 -275 -63 -552 91 -654 366 -21 55 -23 78 -26 372
l-4 312 -186 -1 c-106 0 -200 -5 -217 -11z m2196 -1305 c-16 -21 -39 -67 -51
-103 -39 -116 -12 -274 59 -348 l22 -22 -1173 2 -1173 3 -40 23 c-91 53 -135
133 -131 240 3 79 21 120 79 174 76 70 -3 66 1280 67 l1158 1 -30 -37z"/>
</g>
</svg>
