<?xml version="1.0" standalone="no"?>
<!DOCTYPE svg PUBLIC "-//W3C//DTD SVG 20010904//EN"
 "http://www.w3.org/TR/2001/REC-SVG-20010904/DTD/svg10.dtd">
<svg version="1.0" xmlns="http://www.w3.org/2000/svg"
 width="792.000000pt" height="792.000000pt" viewBox="0 0 792.000000 792.000000"
 preserveAspectRatio="xMidYMid meet">
<metadata>
Created by potrace 1.14, written by Peter Selinger 2001-2017
</metadata>
<g transform="translate(0.000000,792.000000) scale(0.100000,-0.100000)"
fill="#000000" stroke="none">
<path d="M1808 7290 c-209 -45 -336 -177 -363 -380 -8 -59 -9 -3813 -1 -3910
4 -41 9 -82 12 -91 2 -10 6 -30 9 -45 6 -44 29 -136 71 -284 40 -141 55 -166
149 -238 32 -26 286 -152 304 -152 6 0 19 -4 29 -10 17 -9 154 -59 182 -65 8
-2 51 -16 95 -30 68 -22 384 -109 434 -120 9 -2 57 -13 106 -25 50 -12 101
-24 115 -27 14 -2 50 -10 80 -18 30 -8 70 -17 88 -20 19 -3 71 -14 117 -25 46
-11 98 -22 117 -25 18 -3 87 -17 153 -30 66 -14 134 -27 150 -30 17 -3 46 -8
65 -12 65 -11 73 -9 94 26 20 34 20 43 21 2385 1 2469 1 2413 -42 2506 -78
168 -267 308 -558 412 -101 36 -270 85 -322 93 -11 2 -30 6 -41 9 -11 4 -29 8
-39 10 -10 2 -56 11 -103 20 -47 9 -94 18 -105 20 -18 3 -106 16 -145 21 -8 1
-37 5 -65 9 -27 3 -69 8 -92 11 -24 3 -60 7 -80 9 -202 24 -342 26 -435 6z
m985 -1713 c42 -27 81 -95 91 -157 2 -8 6 -30 10 -48 4 -17 9 -71 11 -118 1
-47 5 -88 9 -91 3 -4 6 -1 6 6 0 7 9 33 21 59 110 248 229 371 360 372 63 0
107 -31 140 -98 29 -60 32 -80 32 -247 1 -121 -11 -266 -29 -370 -7 -42 -17
-116 -18 -142 -1 -13 -3 -23 -6 -23 -3 0 -6 -8 -6 -17 -1 -25 -12 -102 -19
-138 -4 -16 -8 -43 -10 -60 -1 -16 -6 -52 -11 -80 -4 -27 -8 -54 -9 -60 -2
-23 -17 -133 -22 -165 -2 -19 -6 -98 -8 -175 -5 -194 21 -308 82 -358 29 -23
19 -47 -19 -47 -74 0 -157 70 -209 178 -64 133 -83 237 -83 467 0 210 12 312
78 685 3 14 7 40 11 59 3 19 7 37 9 40 2 3 7 28 10 55 4 27 9 52 11 55 1 3 6
22 9 41 3 19 8 46 11 60 8 40 15 92 19 143 8 87 -41 95 -111 19 -80 -85 -220
-453 -259 -677 -2 -14 -6 -37 -9 -52 -3 -16 -8 -44 -10 -63 -3 -19 -7 -42 -10
-50 -9 -33 -21 -181 -24 -307 -2 -58 -55 -81 -115 -49 -71 36 -87 96 -88 316
0 111 6 232 16 340 2 19 7 71 11 115 4 44 9 89 11 100 9 46 17 157 17 249 1
90 -1 100 -21 116 -28 23 -54 16 -93 -23 -32 -31 -86 -112 -108 -162 -18 -40
-92 -236 -96 -255 -2 -8 -13 -50 -25 -92 -21 -76 -26 -100 -36 -148 -3 -14 -7
-33 -10 -42 -5 -18 -8 -31 -18 -98 -3 -19 -7 -44 -10 -55 -2 -11 -6 -46 -10
-77 -3 -32 -9 -83 -12 -114 -13 -118 -8 -307 10 -367 16 -54 16 -61 1 -83 -27
-42 -98 -24 -139 34 -28 41 -73 137 -79 167 -2 11 -7 27 -10 35 -29 77 -41
372 -24 575 5 50 10 110 12 135 2 25 7 77 10 115 13 137 13 307 -1 354 -21 68
-54 93 -118 88 -28 -2 -63 -10 -76 -17 -66 -35 -130 -137 -147 -235 -10 -51
-9 -181 0 -245 14 -89 61 -190 117 -250 30 -32 31 -35 14 -47 -28 -20 -39 -16
-92 35 -32 30 -63 74 -85 120 -20 40 -35 74 -35 75 1 2 -8 50 -17 97 -7 32 -7
168 0 200 3 14 8 39 11 55 8 48 58 146 97 190 34 40 98 79 147 92 14 3 58 7
98 9 155 7 247 -62 302 -226 20 -59 32 -123 34 -182 2 -44 23 -32 30 16 1 8 5
19 9 22 4 4 7 13 7 20 0 15 77 176 105 219 26 41 87 117 105 133 8 7 37 26 64
42 40 23 59 28 106 27 34 -1 66 -9 83 -20z"/>
<path d="M5877 7304 c-1 -2 -35 -6 -74 -9 -134 -11 -266 -26 -438 -51 -31 -5
-228 -39 -280 -50 -16 -3 -39 -7 -50 -8 -11 -2 -27 -6 -35 -9 -8 -3 -55 -16
-105 -28 -288 -69 -548 -194 -678 -326 -56 -56 -107 -131 -107 -155 0 -10 -4
-18 -9 -18 -5 0 -12 -15 -15 -32 -3 -18 -9 -44 -11 -58 -3 -14 -6 -1087 -6
-2384 -1 -2234 0 -2361 17 -2398 16 -35 21 -38 43 -33 33 9 38 10 86 20 22 5
42 10 45 10 3 1 16 5 30 8 71 19 192 33 235 28 8 -1 11 -177 10 -561 0 -533 1
-563 19 -603 11 -23 21 -44 22 -45 1 -2 11 5 21 15 21 20 175 161 238 216 22
20 69 63 105 96 36 34 70 61 76 61 6 0 44 -23 85 -51 72 -50 208 -180 300
-288 46 -54 46 -55 78 -42 20 9 34 23 38 40 6 24 7 81 3 99 -1 4 -2 11 -1 15
2 14 3 211 1 222 -1 6 -2 13 -1 17 2 15 3 133 1 143 -1 6 -1 15 0 20 2 11 2
198 -1 211 -1 5 0 14 1 19 2 11 1 208 -1 222 -1 4 -1 13 0 18 4 20 3 306 -1
310 -2 2 -2 22 0 45 4 35 10 45 41 64 54 35 185 74 268 80 207 17 384 157 484
384 17 37 34 76 39 87 16 36 39 119 61 215 23 105 25 119 36 205 9 70 11 3831
2 3891 -15 103 -76 210 -155 274 -55 44 -161 89 -254 106 -37 7 -158 13 -163
8z m-445 -1491 c23 -27 25 -43 13 -98 -12 -51 -12 -237 -1 -350 15 -139 24
-218 31 -265 10 -70 15 -110 20 -155 6 -61 15 -128 22 -175 7 -48 10 -74 18
-155 3 -38 8 -81 10 -95 2 -14 7 -70 10 -125 4 -55 9 -103 12 -108 8 -14 127
77 214 164 195 196 346 477 395 734 2 11 6 31 9 45 16 84 23 159 25 260 2 81
18 120 49 120 10 0 26 -11 35 -25 23 -34 16 -227 -14 -370 -19 -90 -21 -100
-26 -117 -3 -9 -7 -25 -9 -35 -19 -94 -110 -311 -174 -418 -23 -37 -41 -71
-41 -75 0 -5 -3 -10 -7 -12 -5 -1 -21 -23 -38 -48 -73 -109 -299 -305 -392
-341 -22 -8 -23 -12 -24 -141 -4 -497 -89 -775 -299 -976 -78 -75 -229 -152
-330 -168 -14 -2 -36 -7 -50 -10 -14 -3 -74 -7 -134 -9 -106 -3 -192 11 -223
37 -7 6 -13 7 -13 4 0 -9 -66 40 -101 74 -55 53 -104 150 -125 245 -14 64 -8
263 9 305 4 8 8 26 11 40 6 41 60 153 104 217 149 219 377 339 679 358 67 4
73 9 63 44 -4 16 -6 32 -3 35 8 8 9 426 1 439 -4 6 -2 17 4 24 7 9 7 13 0 13
-6 0 -16 -18 -22 -40 -15 -57 -69 -180 -94 -215 -11 -16 -20 -32 -20 -35 6
-25 -125 -162 -174 -182 -68 -28 -158 -32 -224 -9 -52 17 -143 89 -159 125 -5
11 -19 37 -30 56 -29 47 -56 136 -76 245 -18 98 -25 481 -10 605 4 36 9 84 12
108 13 112 15 122 35 227 6 28 12 60 15 73 5 30 37 81 67 109 58 55 165 65
230 22 66 -43 82 -93 62 -195 -7 -38 -16 -94 -19 -124 -3 -30 -8 -71 -10 -90
-8 -69 -16 -167 -20 -250 -2 -47 -4 -85 -5 -85 -8 0 4 -377 14 -425 1 -8 6
-33 11 -55 12 -60 43 -121 68 -132 54 -25 103 31 167 191 51 128 137 476 155
626 3 25 7 52 10 60 4 15 8 45 20 185 12 135 46 228 102 283 50 49 137 67 165
35z"/>
<path d="M5059 4046 c-2 -2 -20 -7 -40 -10 -20 -3 -48 -10 -63 -15 -14 -6 -26
-9 -26 -6 0 7 -123 -46 -170 -73 -67 -39 -137 -100 -186 -163 -157 -204 -168
-512 -24 -659 99 -101 272 -91 380 23 58 60 134 221 156 327 14 70 35 189 39
223 3 20 7 56 10 80 3 23 8 76 11 117 2 41 6 94 9 118 l4 42 -48 0 c-26 0 -50
-2 -52 -4z"/>
<path d="M859 6937 c-17 -11 -52 -40 -77 -65 l-47 -44 1 -1827 c0 -1964 -1
-1895 54 -2082 24 -79 84 -214 100 -224 6 -4 8 -10 5 -14 -2 -5 4 -16 15 -26
11 -10 20 -24 20 -32 0 -7 4 -13 8 -13 4 0 15 -12 25 -27 40 -66 182 -196 297
-274 108 -72 248 -139 292 -139 21 0 38 2 38 5 0 3 -14 20 -31 38 -111 115
-248 337 -285 462 -10 33 -20 67 -23 75 -2 8 -6 890 -7 1960 -2 1369 -6 1964
-14 2009 -6 35 -20 82 -32 104 -25 50 -83 105 -117 114 -14 3 -30 8 -35 11 -5
3 -42 6 -83 7 -57 1 -79 -3 -104 -18z"/>
<path d="M6887 6954 c-1 -2 -18 -6 -37 -9 -78 -14 -147 -85 -173 -178 -8 -29
-15 -59 -16 -67 -1 -8 -3 -888 -5 -1955 -2 -1067 -7 -1960 -11 -1984 -4 -25
-15 -68 -25 -95 -9 -28 -19 -58 -21 -66 -2 -8 -6 -17 -9 -20 -3 -3 -20 -35
-38 -72 -33 -67 -153 -236 -211 -295 -17 -18 -31 -36 -31 -39 0 -12 59 5 124
36 36 16 69 30 75 30 5 0 11 3 13 8 2 4 21 16 43 27 22 11 45 23 50 27 6 5 45
33 87 62 115 81 183 149 273 270 31 42 115 207 115 225 0 10 4 21 9 26 9 10
48 168 58 234 3 20 6 853 8 1851 2 1543 0 1820 -12 1846 -8 17 -35 55 -61 84
l-48 53 -77 2 c-42 1 -78 1 -80 -1z"/>
<path d="M133 6215 c-26 -18 -61 -47 -77 -64 l-29 -30 0 -1573 c0 -1433 3
-1692 18 -1768 5 -26 11 -55 19 -106 12 -67 76 -244 121 -334 42 -84 130 -224
159 -256 6 -7 27 -31 46 -55 60 -74 171 -179 275 -261 55 -43 117 -94 138
-114 20 -20 54 -46 74 -56 41 -22 159 -60 244 -77 29 -6 65 -14 79 -17 14 -3
34 -7 45 -9 11 -2 34 -6 50 -9 17 -4 46 -9 65 -12 19 -2 46 -7 60 -10 14 -2
36 -6 50 -9 14 -3 45 -8 70 -11 25 -3 54 -7 65 -9 11 -2 45 -6 75 -9 30 -4 62
-9 70 -11 14 -4 56 -9 160 -21 25 -3 61 -7 80 -10 19 -2 58 -6 85 -9 28 -3 70
-8 95 -11 56 -7 90 -11 160 -18 30 -3 100 -11 155 -16 55 -6 123 -13 150 -15
28 -3 68 -7 90 -10 22 -2 72 -7 110 -10 39 -3 90 -7 115 -10 25 -3 72 -7 105
-10 33 -3 78 -7 100 -9 22 -3 81 -8 130 -11 50 -4 101 -8 115 -10 14 -2 70 -7
125 -11 55 -3 109 -8 120 -10 11 -2 56 -6 100 -9 44 -3 112 -8 150 -12 39 -3
117 -6 175 -7 94 0 110 2 149 24 70 39 83 64 84 159 0 58 -5 92 -18 122 l-19
40 -54 -6 c-29 -3 -63 -10 -75 -15 -18 -8 -43 -15 -117 -35 -3 -1 -23 -6 -44
-13 -22 -6 -42 -9 -46 -7 -5 3 -220 49 -290 61 -14 3 -68 14 -120 25 -109 24
-122 26 -170 34 -19 3 -43 8 -52 11 -10 3 -29 7 -43 10 -14 2 -35 6 -47 9 -24
5 -157 32 -193 39 -11 2 -76 16 -145 31 -69 14 -134 28 -145 30 -40 7 -81 15
-105 21 -14 4 -34 8 -45 9 -21 3 -54 10 -95 20 -14 3 -36 8 -50 10 -14 2 -34
6 -45 9 -11 2 -119 25 -240 50 -121 25 -251 52 -290 60 -38 8 -83 17 -100 20
-16 3 -59 12 -95 19 -36 8 -68 13 -72 10 -5 -2 -8 0 -8 4 0 5 -8 9 -17 9 -10
1 -31 4 -48 8 -16 3 -41 8 -55 11 -14 2 -36 7 -50 10 -14 3 -35 7 -48 10 -318
60 -561 270 -710 615 -32 75 -89 263 -97 325 -2 11 -6 34 -9 50 -4 17 -9 46
-11 65 -3 19 -8 51 -11 70 -24 152 -28 333 -28 1645 l-1 1330 -23 35 c-29 46
-50 70 -86 98 -26 20 -40 23 -117 21 -81 -1 -91 -4 -136 -34z"/>
<path d="M7518 6221 c-117 -74 -117 -75 -118 -312 0 -107 0 -201 -1 -209 0 -8
0 -62 0 -120 1 -58 1 -113 0 -122 0 -10 0 -101 0 -203 0 -102 0 -191 0 -197 0
-7 0 -60 0 -118 1 -58 0 -112 0 -120 0 -8 0 -170 0 -360 0 -190 0 -352 0 -360
0 -8 0 -62 0 -120 1 -58 1 -114 1 -125 -1 -11 -1 -76 -1 -145 0 -189 -9 -386
-24 -500 -24 -186 -43 -287 -74 -400 -7 -25 -14 -52 -16 -60 -16 -78 -114
-288 -182 -392 -48 -73 -182 -218 -201 -218 -6 0 -12 -4 -14 -9 -1 -4 -28 -24
-58 -43 -39 -25 -80 -40 -140 -52 -47 -9 -96 -19 -110 -22 -14 -3 -38 -7 -55
-10 -16 -3 -58 -12 -93 -20 -34 -7 -77 -16 -95 -19 -17 -3 -50 -11 -72 -17
-22 -5 -51 -12 -65 -15 -33 -5 -295 -71 -340 -84 -19 -6 -60 -22 -91 -36 l-56
-24 1 -167 c1 -149 3 -171 22 -202 l20 -35 95 1 c89 1 278 11 344 18 91 10
145 17 166 22 13 2 44 7 69 10 25 2 63 9 85 15 22 6 49 13 60 14 109 18 367
106 480 166 99 51 216 123 251 154 7 6 30 25 53 44 107 86 224 226 298 356 48
85 88 171 92 198 0 4 7 20 14 35 17 32 66 215 73 270 2 20 7 46 10 56 4 11 8
38 10 60 2 23 6 64 10 91 9 71 11 3205 2 3205 -5 0 -8 4 -8 10 0 13 -26 46
-76 96 l-42 42 -90 0 c-82 1 -94 -2 -134 -27z"/>
</g>
</svg>
